# xmcd
# Copyright (C) 1995-1998 Ti Kan
#
# Track frame offsets:
#       150
#       16126
#       41927
#       60528
#       79279
#       83555
#       103131
#       125556
#       127582
#       147308
#       161334
#
# Disc length: 2414 seconds
#
# Revision: 0
# Processed by: cddbd v1.4b42PL1 Copyright (c) Steve Scherf et al.
# Submitted via: CD-Transfer v1.0
#
DISCID=88096c0b
DTITLE=Kurt Ackermann - That Was Then... This Is Now!
DYEAR=1996
DGENRE=
TTITLE0=That Was Then... This Is Now!
TTITLE1=Drop A Line
TTITLE2=Channel Surfer
TTITLE3=I'm Running Out Of Breath
TTITLE4=Ken Saro - Wiwa
TTITLE5=Until It's Done
TTITLE6=Ten Days Back In L. A. '96
TTITLE7=Broken String Blues
TTITLE8=Manmade Madness
TTITLE9=I'm Running Out Of Breath (Club Version)
TTITLE10=Can't Break Outside '96
EXTD=
EXTT0=
EXTT1=
EXTT2=
EXTT3=
EXTT4=
EXTT5=
EXTT6=
EXTT7=
EXTT8=
EXTT9=
EXTT10=
PLAYORDER=
